<svg width="73" height="72" viewBox="0 0 73 72" fill="none" xmlns="http://www.w3.org/2000/svg">
<g clip-path="url(#clip0_498_217)">
<path d="M12.2056 72H59.3563C67.5194 72 71.5619 67.972 71.5619 59.9152V12.1238C71.5619 4.06734 67.5194 0 59.3563 0H12.2056C4.08148 0 0 4.06734 0 12.1238V59.9152C0 67.972 4.08148 72 12.2056 72ZM12.2833 65.7033C8.39621 65.7033 6.25829 63.6308 6.25829 59.5631V12.4758C6.25829 8.40848 8.39621 6.2966 12.2833 6.2966H59.2787C63.127 6.2966 65.3035 8.40848 65.3035 12.4758V59.5631C65.3035 63.6308 63.127 65.7033 59.2787 65.7033H12.2833Z" fill="#006DEC" fill-opacity="0.26"/>
<path d="M25.7326 51.9761C26.5101 51.9761 27.0543 51.8199 27.6373 51.546L50.8047 39.4221C52.3985 38.5617 53.0978 37.584 53.0978 35.9805C53.0978 34.4943 52.3204 33.3992 50.8047 32.5389L27.6373 19.9848C27.0154 19.6719 26.5101 19.5155 25.6549 19.5155C23.8668 19.5155 22.5063 20.8452 22.5063 22.6051C22.5063 24.0522 23.206 24.9908 24.7997 25.773L44.5073 35.7458V35.9805L24.7997 45.7186C23.1671 46.5007 22.5063 47.3614 22.5063 48.8475C22.5063 50.6465 23.9057 51.9761 25.7326 51.9761Z" fill="#006DEC"/>
</g>
<defs>
<clipPath id="clip0_498_217">
<rect width="73" height="72" fill="white"/>
</clipPath>
</defs>
</svg>
