<svg width="118" height="72" viewBox="0 0 118 72" fill="none" xmlns="http://www.w3.org/2000/svg">
<g clip-path="url(#clip0_498_153)">
<path d="M91.4405 12.9073H83.6594C76.5356 12.9073 71.9323 17.378 71.9323 24.2283V57.1455H23.6365V15.9719C23.6365 13.6645 24.8055 12.5107 27.1801 12.5107H89.4679C90.2561 12.5107 90.9157 12.6419 91.4405 12.9073Z" fill="#006DEC" fill-opacity="0.21"/>
<path d="M98.803 12.9073H91.4405C90.9157 12.6419 90.2561 12.5107 89.4679 12.5107H27.1801C24.8055 12.5107 23.6365 13.6645 23.6365 15.9719V57.1455H71.9324V60.7149C71.9324 62.4265 72.2197 63.9874 72.7621 65.366H9.75413C7.48911 65.366 5.62598 63.527 5.62598 61.2558C5.62598 58.9845 7.48911 57.1455 9.75413 57.1455H17.7547V14.3495C17.7547 9.30192 20.7504 6.70605 25.5727 6.70605H91.0754C95.6423 6.70605 98.3182 8.8058 98.803 12.9073Z" fill="#006DEC"/>
<path d="M83.769 62.734C82.1615 62.734 81.3213 61.8686 81.3213 60.2464V25.2738C81.3213 23.6153 82.1615 22.7501 83.769 22.7501H100.245C101.853 22.7501 102.656 23.6153 102.656 25.2738V60.2464C102.656 61.8686 101.853 62.734 100.245 62.734H83.769Z" fill="#006DEC" fill-opacity="0.21"/>
<path d="M83.6595 67.4571H100.318C104.848 67.4571 107.442 65.0053 107.442 60.7149V24.8051C107.442 20.5147 104.848 18.027 100.318 18.027H83.6595C79.1659 18.027 76.5356 20.5147 76.5356 24.8051V60.7149C76.5356 65.0053 79.1292 67.4571 83.6595 67.4571ZM83.7691 62.734C82.1616 62.734 81.3214 61.8686 81.3214 60.2464V25.2738C81.3214 23.6153 82.1616 22.7501 83.7691 22.7501H100.245C101.853 22.7501 102.656 23.6153 102.656 25.2738V60.2464C102.656 61.8686 101.853 62.734 100.245 62.734H83.7691ZM87.0203 60.895H96.9207C97.6513 60.895 98.236 60.3903 98.236 59.6331C98.236 58.9483 97.6513 58.4074 96.9207 58.4074H87.0203C86.2531 58.4074 85.7784 58.9483 85.7784 59.6331C85.7784 60.4265 86.2168 60.895 87.0203 60.895ZM89.0662 27.9058H94.8018C95.7517 27.9058 96.5189 27.1487 96.5189 26.2112C96.5189 25.3099 95.7517 24.5888 94.8018 24.5888H89.0662C88.1164 24.5888 87.3858 25.3099 87.3858 26.2112C87.3858 27.1487 88.1164 27.9058 89.0662 27.9058Z" fill="#006DEC"/>
</g>
<defs>
<clipPath id="clip0_498_153">
<rect width="118" height="72" fill="white"/>
</clipPath>
</defs>
</svg>
