<svg width="56" height="56" viewBox="0 0 56 56" fill="none" xmlns="http://www.w3.org/2000/svg">
<mask id="mask0_97_1498" style="mask-type:alpha" maskUnits="userSpaceOnUse" x="0" y="0" width="56" height="56">
<rect width="56" height="56" fill="#D9D9D9"/>
</mask>
<g mask="url(#mask0_97_1498)">
<path d="M28 51.3332C24.7722 51.3332 21.7389 50.7207 18.9 49.4957C16.0611 48.2707 13.5917 46.6082 11.4917 44.5082C9.39169 42.4082 7.72919 39.9387 6.50419 37.0998C5.27919 34.261 4.66669 31.2276 4.66669 27.9998C4.66669 24.7721 5.27919 21.7387 6.50419 18.8998C7.72919 16.0609 9.39169 13.5915 11.4917 11.4915C13.5917 9.3915 16.0611 7.729 18.9 6.504C21.7389 5.279 24.7722 4.6665 28 4.6665C31.2278 4.6665 34.2611 5.279 37.1 6.504C39.9389 7.729 42.4084 9.3915 44.5084 11.4915C46.6084 13.5915 48.2709 16.0609 49.4959 18.8998C50.7209 21.7387 51.3334 24.7721 51.3334 27.9998V31.1887C51.3334 33.4054 50.5608 35.2818 49.0158 36.8179C47.4709 38.354 45.573 39.122 43.3223 39.122C41.9331 39.122 40.6233 38.798 39.3929 38.1498C38.1625 37.5017 37.1908 36.5813 36.4778 35.3887C35.4278 36.6461 34.1596 37.5827 32.6732 38.1984C31.1867 38.8142 29.629 39.122 28 39.122C24.9121 39.122 22.28 38.0429 20.1036 35.8845C17.9271 33.7262 16.8389 31.0978 16.8389 27.9993C16.8389 24.9008 17.9271 22.2596 20.1036 20.0757C22.28 17.8918 24.9121 16.7998 28 16.7998C31.0879 16.7998 33.7201 17.8918 35.8965 20.0758C38.0729 22.2598 39.1611 24.9012 39.1611 27.9998V31.1887C39.1611 32.3194 39.563 33.2762 40.3667 34.059C41.1704 34.8418 42.1491 35.2332 43.3028 35.2332C44.4565 35.2332 45.4352 34.8418 46.2389 34.059C47.0426 33.2762 47.4445 32.3194 47.4445 31.1887V27.9998C47.4445 22.5716 45.5608 17.9738 41.7935 14.2064C38.0261 10.439 33.4283 8.55536 28 8.55536C22.5718 8.55536 17.974 10.439 14.2066 14.2064C10.4392 17.9738 8.55554 22.5716 8.55554 27.9998C8.55554 33.4281 10.4392 38.0259 14.2066 41.7933C17.974 45.5606 22.5718 47.4443 28 47.4443H40.2112V51.3332H28ZM28.0023 35.2332C30.023 35.2332 31.7398 34.5299 33.1528 33.1234C34.5658 31.717 35.2723 30.0091 35.2723 27.9998C35.2723 25.9517 34.565 24.2211 33.1505 22.8082C31.736 21.3952 30.0185 20.6887 27.9977 20.6887C25.977 20.6887 24.2602 21.3952 22.8473 22.8082C21.4343 24.2211 20.7278 25.9517 20.7278 27.9998C20.7278 30.0091 21.435 31.717 22.8495 33.1234C24.264 34.5299 25.9816 35.2332 28.0023 35.2332Z" fill="#006DEC"/>
</g>
</svg>
