<svg width="56" height="56" viewBox="0 0 56 56" fill="none" xmlns="http://www.w3.org/2000/svg">
<path d="M8 10.865C8 9.2825 9.315 8 10.9375 8H45.0625C46.685 8 48 9.2825 48 10.865V45.135C48 46.7175 46.685 48 45.0625 48H10.9375C9.315 48 8 46.7175 8 45.135V10.865ZM20.3575 41.485V23.4225H14.355V41.485H20.3575ZM17.3575 20.955C19.45 20.955 20.7525 19.57 20.7525 17.835C20.715 16.0625 19.4525 14.715 17.3975 14.715C15.3425 14.715 14 16.065 14 17.835C14 19.57 15.3025 20.955 17.3175 20.955H17.3575ZM29.6275 41.485V31.3975C29.6275 30.8575 29.6675 30.3175 29.8275 29.9325C30.26 28.855 31.2475 27.7375 32.9075 27.7375C35.08 27.7375 35.9475 29.3925 35.9475 31.8225V41.485H41.95V31.125C41.95 25.575 38.99 22.995 35.04 22.995C31.855 22.995 30.4275 24.745 29.6275 25.9775V26.04H29.5875C29.6008 26.0191 29.6141 25.9983 29.6275 25.9775V23.4225H23.6275C23.7025 25.1175 23.6275 41.485 23.6275 41.485H29.6275Z" fill="#006DEC"/>
</svg>
