<svg width="48" height="48" viewBox="0 0 48 48" fill="none" xmlns="http://www.w3.org/2000/svg">
<path d="M4 6.865C4 5.2825 5.315 4 6.9375 4H41.0625C42.685 4 44 5.2825 44 6.865V41.135C44 42.7175 42.685 44 41.0625 44H6.9375C5.315 44 4 42.7175 4 41.135V6.865ZM16.3575 37.485V19.4225H10.355V37.485H16.3575ZM13.3575 16.955C15.45 16.955 16.7525 15.57 16.7525 13.835C16.715 12.0625 15.4525 10.715 13.3975 10.715C11.3425 10.715 10 12.065 10 13.835C10 15.57 11.3025 16.955 13.3175 16.955H13.3575ZM25.6275 37.485V27.3975C25.6275 26.8575 25.6675 26.3175 25.8275 25.9325C26.26 24.855 27.2475 23.7375 28.9075 23.7375C31.08 23.7375 31.9475 25.3925 31.9475 27.8225V37.485H37.95V27.125C37.95 21.575 34.99 18.995 31.04 18.995C27.855 18.995 26.4275 20.745 25.6275 21.9775V22.04H25.5875C25.6008 22.0191 25.6141 21.9983 25.6275 21.9775V19.4225H19.6275C19.7025 21.1175 19.6275 37.485 19.6275 37.485H25.6275Z" fill="white"/>
</svg>
