<svg width="72" height="72" viewBox="0 0 72 72" fill="none" xmlns="http://www.w3.org/2000/svg">
<path d="M13.2794 61.2023L8.22363 4.5H63.7761L58.7136 61.1933L35.9661 67.5L13.2794 61.2023Z" fill="#E44F26"/>
<path d="M36 62.6805L54.3825 57.5843L58.707 9.13727H36V62.6805Z" fill="#F1662A"/>
<path d="M36 30.1657H26.7975L26.163 23.0445H36V16.0897H18.5625L18.729 17.9572L20.4368 37.1205H36V30.1657ZM36 48.2265L35.9685 48.2355L28.224 46.1452L27.729 40.599H20.7472L21.7215 51.516L35.9685 55.4715L36 55.4625V48.2265Z" fill="#EBEBEB"/>
<path d="M35.9753 30.1657V37.1205H44.5388L43.7333 46.1407L35.9753 48.2332V55.4692L50.2336 51.516L50.3371 50.3415L51.9706 32.0332L52.1416 30.1657H50.2673H35.9753ZM35.9753 16.0897V23.0445H52.7738L52.9133 21.483L53.2306 17.9572L53.3971 16.0897H35.9753Z" fill="white"/>
</svg>
