<svg width="72" height="72" viewBox="0 0 72 72" fill="none" xmlns="http://www.w3.org/2000/svg">
<path d="M13.2796 61.2023L8.22607 4.5H63.7741L58.7138 61.1933L35.9663 67.5L13.2796 61.2023Z" fill="#1572B6"/>
<path d="M36 62.6805L54.3825 57.5842L58.707 9.13721H36V62.6805Z" fill="#33A9DC"/>
<path d="M36 29.6798H45.2025L45.837 22.5585H36V15.6038H53.4375L53.271 17.469L51.5632 36.6345H36V29.6798Z" fill="white"/>
<path d="M36.0428 47.7405L36.0113 47.7495L28.2668 45.657L27.7718 40.1107H20.79L21.7643 51.03L36.009 54.9855L36.0428 54.9765V47.7405Z" fill="#EBEBEB"/>
<path d="M44.6108 36.3397L43.7738 45.6525L36.0181 47.745V54.981L50.2741 51.03L50.3798 49.8555L51.5881 36.3397H44.6108Z" fill="white"/>
<path d="M36.0248 15.6038V22.5585H19.2263L19.0868 20.9948L18.7695 17.469L18.603 15.6038H36.0248ZM36 29.6798V36.6345H28.3523L28.2128 35.0708L27.8978 31.545L27.7313 29.6798H36Z" fill="#EBEBEB"/>
</svg>
