<svg width="72" height="72" viewBox="0 0 72 72" fill="none" xmlns="http://www.w3.org/2000/svg">
<path d="M4.5 4.5H67.5V67.5H4.5V4.5Z" fill="#F5DE19"/>
<path d="M46.8202 53.7188C47.3569 54.8091 48.1909 55.7256 49.2259 56.3625C50.261 56.9995 51.4549 57.3309 52.6702 57.3188C55.1227 57.3188 56.6909 56.0925 56.6909 54.3938C56.6909 52.3688 55.0799 51.6443 52.3799 50.463L50.8994 49.8285C46.6244 48.0083 43.7894 45.729 43.7894 40.9095C43.7894 36.4703 47.1644 33.0885 52.4587 33.0885C54.1725 32.9648 55.8848 33.3483 57.3821 34.1914C58.8794 35.0345 60.0953 36.2997 60.8782 37.8293L56.2499 40.788C55.9485 40.0296 55.4236 39.3807 54.7449 38.9275C54.0662 38.4742 53.2657 38.2379 52.4497 38.25C52.0936 38.2144 51.7341 38.2533 51.3939 38.3643C51.0537 38.4753 50.7404 38.6559 50.4739 38.8947C50.2074 39.1335 49.9936 39.4251 49.846 39.7511C49.6985 40.0771 49.6204 40.4302 49.6169 40.788C49.6169 42.5633 50.7172 43.2833 53.2574 44.388L54.7379 45.0225C59.7689 47.1803 62.6129 49.3785 62.6129 54.3218C62.6129 59.652 58.4257 62.5725 52.8029 62.5725C50.6121 62.7121 48.4277 62.2147 46.5133 61.1403C44.5989 60.066 43.0363 58.4605 42.0142 56.5178L46.8202 53.7188ZM25.9064 54.2318C26.8357 55.881 27.6817 57.276 29.7157 57.276C31.6597 57.276 32.8882 56.5155 32.8882 53.5568V33.426H38.8079V53.6355C38.8079 59.7645 35.2079 62.5545 29.9677 62.5545C28.1154 62.6558 26.2758 62.1942 24.6907 61.2304C23.1057 60.2666 21.8493 58.8457 21.0869 57.1545L25.9064 54.2318Z" fill="black"/>
</svg>
