<svg width="65" height="72" viewBox="0 0 65 72" fill="none" xmlns="http://www.w3.org/2000/svg">
<g clip-path="url(#clip0_425_72)">
<path d="M45.3284 8.5263L42.0967 11.7734C37.1453 8.83317 31.5638 7.12193 26.0418 7.12193C12.7905 7.12193 4.83969 16.549 4.83969 28.7308C4.83969 43.2691 15.8977 60.0728 37.6481 63.2252C39.0494 63.4089 39.7197 64.419 39.7197 65.4288C39.7197 66.5308 38.8363 67.6939 37.1303 67.4796C17.695 65.5821 0.544434 48.9928 0.544434 28.8532C0.544434 14.1004 10.4448 2.8063 26.1637 2.8063C32.7694 2.8063 39.4752 4.89101 45.3284 8.5263ZM63.3588 38.7089C63.3588 49.4827 55.9867 56.7672 45.538 56.7672C38.51 56.7672 30.8335 53.4829 24.8827 48.1601L29.5585 46.0805C34.3332 50.1095 40.1296 52.6658 45.4772 52.6658C52.9403 52.6658 59.1548 47.3706 59.1548 38.6782C59.1548 32.8693 57.1081 27.2726 53.7199 22.4652L56.8985 19.2836C60.9091 24.8447 63.3588 31.5062 63.3588 38.7089Z" fill="#006DEC" fill-opacity="0.42"/>
<path d="M27.4128 42.2286L54.7685 14.7738L50.2295 10.2439L22.9043 37.668L20.3759 43.5142C20.1322 44.1567 20.7719 44.8303 21.4421 44.5855L27.4128 42.2286ZM56.9923 12.5701L59.4292 10.1215C60.5868 8.95837 60.6476 7.24437 59.4597 6.14248L58.6677 5.40792C57.6318 4.42849 55.9869 4.42849 54.8901 5.53034L52.4838 8.00956L56.9923 12.5701Z" fill="#006DEC"/>
</g>
<defs>
<clipPath id="clip0_425_72">
<rect width="65" height="72" fill="white"/>
</clipPath>
</defs>
</svg>
