<svg width="65" height="72" viewBox="0 0 65 72" fill="none" xmlns="http://www.w3.org/2000/svg">
<g clip-path="url(#clip0_427_111)">
<path d="M45.3285 8.5263L42.0968 11.7734C37.1454 8.83317 31.5639 7.12193 26.0419 7.12193C12.7906 7.12193 4.83982 16.549 4.83982 28.7308C4.83982 43.2691 15.8978 60.0728 37.6483 63.2252C39.0495 63.4089 39.7198 64.419 39.7198 65.4288C39.7198 66.5308 38.8364 67.6939 37.1304 67.4796C17.6951 65.5821 0.544556 48.9928 0.544556 28.8532C0.544556 14.1004 10.445 2.8063 26.1638 2.8063C32.7695 2.8063 39.4753 4.89101 45.3285 8.5263ZM63.3589 38.7089C63.3589 49.4827 55.9868 56.7672 45.5381 56.7672C38.5101 56.7672 30.8336 53.4829 24.8828 48.1601L29.5586 46.0805C34.3333 50.1095 40.1297 52.6658 45.4773 52.6658C52.9405 52.6658 59.1549 47.3706 59.1549 38.6782C59.1549 32.8693 57.1083 27.2726 53.72 22.4652L56.8986 19.2836C60.9092 24.8447 63.3589 31.5062 63.3589 38.7089Z" fill="#006DEC" fill-opacity="0.42"/>
<path d="M27.4127 42.2286L54.7684 14.7738L50.2293 10.2439L22.9042 37.668L20.3758 43.5142C20.1321 44.1567 20.7718 44.8303 21.442 44.5855L27.4127 42.2286ZM56.9922 12.5701L59.429 10.1215C60.5867 8.95837 60.6475 7.24437 59.4596 6.14248L58.6676 5.40792C57.6317 4.42849 55.9868 4.42849 54.89 5.53034L52.4837 8.00956L56.9922 12.5701Z" fill="#006DEC"/>
</g>
<defs>
<clipPath id="clip0_427_111">
<rect width="65" height="72" fill="white"/>
</clipPath>
</defs>
</svg>
