<svg width="95" height="72" viewBox="0 0 95 72" fill="none" xmlns="http://www.w3.org/2000/svg">
<g clip-path="url(#clip0_427_128)">
<path d="M18.507 43.2683V51.1249C18.507 54.6928 16.6866 56.4763 13.0838 56.4763H5.42313C1.82036 56.4763 0 54.6928 0 51.1249V43.2683C0 39.7004 1.82036 37.9547 5.42313 37.9547H13.0838C16.6866 37.9547 18.507 39.7385 18.507 43.2683Z" fill="#006DEC" fill-opacity="0.42"/>
<path d="M48.5049 5.31366V10.616C39.5928 11.2522 32.1223 19.0482 32.0533 29.0733H15.511C11.9082 29.0733 10.0879 27.3273 10.0879 23.7596V5.31366C10.0879 1.78387 11.9082 0 15.511 0H43.044C46.6847 0 48.5049 1.78387 48.5049 5.31366Z" fill="#006DEC" fill-opacity="0.42"/>
<path d="M93.5969 21.8239V43.9515C93.5969 47.4813 91.7763 49.2652 88.1356 49.2652H76.9482C73.3452 49.2652 71.525 47.4813 71.525 43.9515V21.8239C71.525 18.2941 73.3452 16.5103 76.9482 16.5103H88.1356C91.7763 16.5103 93.5969 18.2941 93.5969 21.8239Z" fill="#006DEC" fill-opacity="0.42"/>
<path d="M49.7184 42.9647C56.3932 42.9647 62.1955 36.9678 62.1955 29.1492C62.1955 21.4444 56.3932 15.7132 49.7184 15.7132C43.0439 15.7132 37.2036 21.5583 37.2036 29.2251C37.2036 36.9678 43.0439 42.9647 49.7184 42.9647ZM28.7465 71.9242H70.6528C73.9898 71.9242 75.9999 70.368 75.9999 67.787C75.9999 59.7025 65.9123 48.5439 49.7184 48.5439C33.487 48.5439 23.3992 59.7025 23.3992 67.787C23.3992 70.368 25.4092 71.9242 28.7465 71.9242Z" fill="#006DEC"/>
</g>
<defs>
<clipPath id="clip0_427_128">
<rect width="95" height="72" fill="white"/>
</clipPath>
</defs>
</svg>
